<?xml version="1.0" encoding="utf-8"?>
<!-- Generator: Adobe Illustrator 16.2.1, SVG Export Plug-In . SVG Version: 6.00 Build 0)  -->
<!DOCTYPE svg PUBLIC "-//W3C//DTD SVG 1.1//EN" "http://www.w3.org/Graphics/SVG/1.1/DTD/svg11.dtd">
<svg version="1.1" id="Layer_1" xmlns="http://www.w3.org/2000/svg" xmlns:xlink="http://www.w3.org/1999/xlink" x="0px" y="0px"
	 width="72px" height="72px" viewBox="0 0 512 512" enable-background="new 0 0 512 512" xml:space="preserve">
<path fill="rgb(222, 221, 221)" d="M128,230.391v51.203c56.547,0,102.406,45.844,102.406,102.406h51.188C281.594,299.188,212.844,230.391,128,230.391z"/>
	<path fill="rgb(222, 221, 221)" d="M128,128v51.203c113.094,0,204.812,91.703,204.812,204.797H384C384,242.609,269.406,128,128,128z"/>
	<path fill="rgb(222, 221, 221)" d="M153.594,332.797c-14.141,0-25.594,11.453-25.594,25.609C128,372.547,139.453,384,153.594,384
		c14.156,0,25.609-11.453,25.609-25.594C179.203,344.25,167.75,332.797,153.594,332.797z"/>

</svg>
